<?xml version="1.0" encoding="UTF-8" standalone="no"?>
<!DOCTYPE svg PUBLIC "-//W3C//DTD SVG 1.1//EN"
 "http://www.w3.org/Graphics/SVG/1.1/DTD/svg11.dtd">
<!-- Generated by graphviz version 2.44.0 (0)
 -->
<!-- Title: ontologia Pages: 1 -->
<svg width="868pt" height="1413pt"
 viewBox="0.00 0.00 868.00 1413.00" xmlns="http://www.w3.org/2000/svg" xmlns:xlink="http://www.w3.org/1999/xlink">
<g id="graph0" class="graph" transform="scale(1 1) rotate(0) translate(4 1409)">
<title>ontologia</title>
<polygon fill="white" stroke="transparent" points="-4,4 -4,-1409 864,-1409 864,4 -4,4"/>
<!-- Manteinance -->
<g id="node1" class="node">
<title>Manteinance</title>
<polygon fill="none" stroke="#000000" points="251.5,-163.5 165.5,-163.5 165.5,-127.5 251.5,-127.5 251.5,-163.5"/>
<text text-anchor="middle" x="208.5" y="-141.8" font-family="Times,serif" font-size="14.00" fill="#000000">Manteinance</text>
</g>
<!-- Exercice -->
<g id="node2" class="node">
<title>Exercice</title>
<polygon fill="none" stroke="#000000" points="304,-255.5 304,-555.5 535,-555.5 535,-255.5 304,-255.5"/>
<text text-anchor="middle" x="419.5" y="-540.3" font-family="Times,serif" font-size="14.00" fill="#000000">Exercice</text>
<polyline fill="none" stroke="#000000" points="304,-532.5 535,-532.5 "/>
<text text-anchor="middle" x="386" y="-517.3" font-family="Times,serif" font-size="14.00" fill="#000000">max_exercice_duration</text>
<polyline fill="none" stroke="#000000" points="468,-509.5 468,-532.5 "/>
<text text-anchor="middle" x="501.5" y="-517.3" font-family="Times,serif" font-size="14.00" fill="#000000">Float</text>
<polyline fill="none" stroke="#000000" points="304,-509.5 535,-509.5 "/>
<text text-anchor="middle" x="385.5" y="-494.3" font-family="Times,serif" font-size="14.00" fill="#000000">min_exercice_duration</text>
<polyline fill="none" stroke="#000000" points="467,-486.5 467,-509.5 "/>
<text text-anchor="middle" x="501" y="-494.3" font-family="Times,serif" font-size="14.00" fill="#000000">Float</text>
<polyline fill="none" stroke="#000000" points="304,-486.5 535,-486.5 "/>
<text text-anchor="middle" x="342.5" y="-402.3" font-family="Times,serif" font-size="14.00" fill="#000000">body_parts</text>
<polyline fill="none" stroke="#000000" points="381,-325.5 381,-486.5 "/>
<text text-anchor="middle" x="413.5" y="-402.3" font-family="Times,serif" font-size="14.00" fill="#000000">Symbol*</text>
<polyline fill="none" stroke="#000000" points="446,-325.5 446,-486.5 "/>
<text text-anchor="middle" x="490.5" y="-471.3" font-family="Times,serif" font-size="14.00" fill="#000000">Pectoral</text>
<polyline fill="none" stroke="#000000" points="446,-463.5 535,-463.5 "/>
<text text-anchor="middle" x="490.5" y="-448.3" font-family="Times,serif" font-size="14.00" fill="#000000">Abdominales</text>
<polyline fill="none" stroke="#000000" points="446,-440.5 535,-440.5 "/>
<text text-anchor="middle" x="490.5" y="-425.3" font-family="Times,serif" font-size="14.00" fill="#000000">Espalda</text>
<polyline fill="none" stroke="#000000" points="446,-417.5 535,-417.5 "/>
<text text-anchor="middle" x="490.5" y="-402.3" font-family="Times,serif" font-size="14.00" fill="#000000">Hombros</text>
<polyline fill="none" stroke="#000000" points="446,-394.5 535,-394.5 "/>
<text text-anchor="middle" x="490.5" y="-379.3" font-family="Times,serif" font-size="14.00" fill="#000000">Piernas</text>
<polyline fill="none" stroke="#000000" points="446,-371.5 535,-371.5 "/>
<text text-anchor="middle" x="490.5" y="-356.3" font-family="Times,serif" font-size="14.00" fill="#000000">Brazos</text>
<polyline fill="none" stroke="#000000" points="446,-348.5 535,-348.5 "/>
<text text-anchor="middle" x="490.5" y="-333.3" font-family="Times,serif" font-size="14.00" fill="#000000">Gluteos</text>
<polyline fill="none" stroke="#000000" points="304,-325.5 535,-325.5 "/>
<text text-anchor="middle" x="373.5" y="-310.3" font-family="Times,serif" font-size="14.00" fill="#000000">instance_name</text>
<polyline fill="none" stroke="#000000" points="443,-302.5 443,-325.5 "/>
<text text-anchor="middle" x="489" y="-310.3" font-family="Times,serif" font-size="14.00" fill="#000000">String</text>
<polyline fill="none" stroke="#000000" points="304,-302.5 535,-302.5 "/>
<text text-anchor="middle" x="340" y="-287.3" font-family="Times,serif" font-size="14.00" fill="#000000">benefits</text>
<polyline fill="none" stroke="#000000" points="376,-279.5 376,-302.5 "/>
<text text-anchor="middle" x="417" y="-287.3" font-family="Times,serif" font-size="14.00" fill="#000000">Instance*</text>
<polyline fill="none" stroke="#000000" points="458,-279.5 458,-302.5 "/>
<text text-anchor="middle" x="496.5" y="-287.3" font-family="Times,serif" font-size="14.00" fill="#000000">Physical</text>
<polyline fill="none" stroke="#000000" points="304,-279.5 535,-279.5 "/>
<text text-anchor="middle" x="337" y="-263.8" font-family="Times,serif" font-size="14.00" fill="#000000">harms</text>
<polyline fill="none" stroke="#000000" points="370,-255.5 370,-279.5 "/>
<text text-anchor="middle" x="412" y="-263.8" font-family="Times,serif" font-size="14.00" fill="#000000">Instance*</text>
<polyline fill="none" stroke="#000000" points="454,-255.5 454,-279.5 "/>
<text text-anchor="middle" x="494.5" y="-263.8" font-family="Times,serif" font-size="14.00" fill="#000000">Problem</text>
</g>
<!-- Exercice&#45;&gt;Manteinance -->
<g id="edge1" class="edge">
<title>Exercice&#45;&gt;Manteinance</title>
<path fill="none" stroke="#000000" d="M297.33,-255.12C267.08,-218.13 238.7,-183.43 222.49,-163.61"/>
<polygon fill="#000000" stroke="#000000" points="294.77,-257.52 303.81,-263.05 300.19,-253.09 294.77,-257.52"/>
<text text-anchor="middle" x="285.5" y="-225.8" font-family="Times,serif" font-size="14.00" fill="#000000">isa</text>
</g>
<!-- MuscleGrowth -->
<g id="node3" class="node">
<title>MuscleGrowth</title>
<polygon fill="none" stroke="#000000" points="269.5,-87.5 269.5,-203.5 439.5,-203.5 439.5,-87.5 269.5,-87.5"/>
<text text-anchor="middle" x="354.5" y="-188.3" font-family="Times,serif" font-size="14.00" fill="#000000">MuscleGrowth</text>
<polyline fill="none" stroke="#000000" points="269.5,-180.5 439.5,-180.5 "/>
<text text-anchor="middle" x="323.5" y="-165.3" font-family="Times,serif" font-size="14.00" fill="#000000">repetitions_low</text>
<polyline fill="none" stroke="#000000" points="377.5,-157.5 377.5,-180.5 "/>
<text text-anchor="middle" x="408.5" y="-165.3" font-family="Times,serif" font-size="14.00" fill="#000000">Integer</text>
<polyline fill="none" stroke="#000000" points="269.5,-157.5 439.5,-157.5 "/>
<text text-anchor="middle" x="307.5" y="-142.3" font-family="Times,serif" font-size="14.00" fill="#000000">sets</text>
<polyline fill="none" stroke="#000000" points="345.5,-134.5 345.5,-157.5 "/>
<text text-anchor="middle" x="392.5" y="-142.3" font-family="Times,serif" font-size="14.00" fill="#000000">Integer</text>
<polyline fill="none" stroke="#000000" points="269.5,-134.5 439.5,-134.5 "/>
<text text-anchor="middle" x="326.5" y="-119.3" font-family="Times,serif" font-size="14.00" fill="#000000">repetitions_high</text>
<polyline fill="none" stroke="#000000" points="383.5,-111.5 383.5,-134.5 "/>
<text text-anchor="middle" x="411.5" y="-119.3" font-family="Times,serif" font-size="14.00" fill="#000000">Float</text>
<polyline fill="none" stroke="#000000" points="269.5,-111.5 439.5,-111.5 "/>
<text text-anchor="middle" x="332" y="-95.8" font-family="Times,serif" font-size="14.00" fill="#000000">repetitions_medium</text>
<polyline fill="none" stroke="#000000" points="394.5,-87.5 394.5,-111.5 "/>
<text text-anchor="middle" x="417" y="-95.8" font-family="Times,serif" font-size="14.00" fill="#000000">Float</text>
</g>
<!-- Exercice&#45;&gt;MuscleGrowth -->
<g id="edge2" class="edge">
<title>Exercice&#45;&gt;MuscleGrowth</title>
<path fill="none" stroke="#000000" d="M379.41,-245.38C375.69,-230.59 372.1,-216.36 368.87,-203.53"/>
<polygon fill="#000000" stroke="#000000" points="376.04,-246.33 381.88,-255.17 382.83,-244.62 376.04,-246.33"/>
<text text-anchor="middle" x="384.5" y="-225.8" font-family="Times,serif" font-size="14.00" fill="#000000">isa</text>
</g>
<!-- WeightLoss -->
<g id="node4" class="node">
<title>WeightLoss</title>
<polygon fill="none" stroke="#000000" points="457.5,-99 457.5,-192 667.5,-192 667.5,-99 457.5,-99"/>
<text text-anchor="middle" x="562.5" y="-176.8" font-family="Times,serif" font-size="14.00" fill="#000000">WeightLoss</text>
<polyline fill="none" stroke="#000000" points="457.5,-169 667.5,-169 "/>
<text text-anchor="middle" x="534.5" y="-153.8" font-family="Times,serif" font-size="14.00" fill="#000000">calories_per_time_hard</text>
<polyline fill="none" stroke="#000000" points="611.5,-146 611.5,-169 "/>
<text text-anchor="middle" x="639.5" y="-153.8" font-family="Times,serif" font-size="14.00" fill="#000000">Float</text>
<polyline fill="none" stroke="#000000" points="457.5,-146 667.5,-146 "/>
<text text-anchor="middle" x="533.5" y="-130.8" font-family="Times,serif" font-size="14.00" fill="#000000">calories_per_time_low</text>
<polyline fill="none" stroke="#000000" points="609.5,-123 609.5,-146 "/>
<text text-anchor="middle" x="638.5" y="-130.8" font-family="Times,serif" font-size="14.00" fill="#000000">Float</text>
<polyline fill="none" stroke="#000000" points="457.5,-123 667.5,-123 "/>
<text text-anchor="middle" x="540" y="-107.3" font-family="Times,serif" font-size="14.00" fill="#000000">calories_per_time_medium</text>
<polyline fill="none" stroke="#000000" points="622.5,-99 622.5,-123 "/>
<text text-anchor="middle" x="645" y="-107.3" font-family="Times,serif" font-size="14.00" fill="#000000">Float</text>
</g>
<!-- Exercice&#45;&gt;WeightLoss -->
<g id="edge3" class="edge">
<title>Exercice&#45;&gt;WeightLoss</title>
<path fill="none" stroke="#000000" d="M507.14,-246.38C518.04,-226.72 528.41,-208.01 537.16,-192.22"/>
<polygon fill="#000000" stroke="#000000" points="504.06,-244.72 502.27,-255.17 510.18,-248.12 504.06,-244.72"/>
<text text-anchor="middle" x="528.5" y="-225.8" font-family="Times,serif" font-size="14.00" fill="#000000">isa</text>
</g>
<!-- Problem -->
<g id="node5" class="node">
<title>Problem</title>
<polygon fill="none" stroke="#000000" points="0,-122 0,-169 147,-169 147,-122 0,-122"/>
<text text-anchor="middle" x="73.5" y="-153.8" font-family="Times,serif" font-size="14.00" fill="#000000">Problem</text>
<polyline fill="none" stroke="#000000" points="0,-146 147,-146 "/>
<text text-anchor="middle" x="48.5" y="-130.3" font-family="Times,serif" font-size="14.00" fill="#000000">instance_name</text>
<polyline fill="none" stroke="#000000" points="97,-122 97,-146 "/>
<text text-anchor="middle" x="122" y="-130.3" font-family="Times,serif" font-size="14.00" fill="#000000">String</text>
</g>
<!-- Exercice&#45;&gt;Problem -->
<g id="edge4" class="edge">
<title>Exercice&#45;&gt;Problem</title>
<path fill="none" stroke="#0000ff" d="M303.81,-318.23C237.41,-268.72 158.32,-209.75 112.23,-175.38"/>
<polygon fill="#0000ff" stroke="#0000ff" points="114.12,-172.42 104.01,-169.25 109.94,-178.04 114.12,-172.42"/>
<text text-anchor="middle" x="205.5" y="-225.8" font-family="Times,serif" font-size="14.00" fill="#0000ff">harms*</text>
</g>
<!-- Physical -->
<g id="node6" class="node">
<title>Physical</title>
<polygon fill="none" stroke="#000000" points="580,-36 517,-36 517,0 580,0 580,-36"/>
<text text-anchor="middle" x="548.5" y="-14.3" font-family="Times,serif" font-size="14.00" fill="#000000">Physical</text>
</g>
<!-- Exercice&#45;&gt;Physical -->
<g id="edge5" class="edge">
<title>Exercice&#45;&gt;Physical</title>
<path fill="none" stroke="#0000ff" d="M535.14,-346.32C588.62,-312.69 646.77,-264.9 676.5,-204 699.31,-157.27 703.29,-131.57 676.5,-87 657.86,-56 619.8,-38.37 590,-28.87"/>
<polygon fill="#0000ff" stroke="#0000ff" points="590.83,-25.47 580.25,-25.96 588.83,-32.18 590.83,-25.47"/>
<text text-anchor="middle" x="719" y="-141.8" font-family="Times,serif" font-size="14.00" fill="#0000ff">benefits*</text>
</g>
<!-- BodyBalance -->
<g id="node7" class="node">
<title>BodyBalance</title>
<polygon fill="none" stroke="#000000" points="860,-163.5 771,-163.5 771,-127.5 860,-127.5 860,-163.5"/>
<text text-anchor="middle" x="815.5" y="-141.8" font-family="Times,serif" font-size="14.00" fill="#000000">BodyBalance</text>
</g>
<!-- Exercice&#45;&gt;BodyBalance -->
<g id="edge6" class="edge">
<title>Exercice&#45;&gt;BodyBalance</title>
<path fill="none" stroke="#000000" d="M544.11,-341.32C598.76,-311.89 662.79,-275.01 717.5,-237 749.26,-214.93 781.29,-183.14 799.72,-163.71"/>
<polygon fill="#000000" stroke="#000000" points="542.23,-338.36 535.07,-346.17 545.54,-344.53 542.23,-338.36"/>
<text text-anchor="middle" x="742.5" y="-225.8" font-family="Times,serif" font-size="14.00" fill="#000000">isa</text>
</g>
<!-- Problem&#45;&gt;Physical -->
<g id="edge10" class="edge">
<title>Problem&#45;&gt;Physical</title>
<path fill="none" stroke="#000000" d="M107.82,-115.71C122.07,-105.15 139.28,-94.05 156.5,-87 283.21,-35.09 448.76,-22.8 517,-19.9"/>
<polygon fill="#000000" stroke="#000000" points="105.62,-112.99 99.79,-121.84 109.87,-118.56 105.62,-112.99"/>
<text text-anchor="middle" x="268.5" y="-57.8" font-family="Times,serif" font-size="14.00" fill="#000000">isa</text>
</g>
<!-- Diet -->
<g id="node11" class="node">
<title>Diet</title>
<polygon fill="none" stroke="#000000" points="100.5,-36 46.5,-36 46.5,0 100.5,0 100.5,-36"/>
<text text-anchor="middle" x="73.5" y="-14.3" font-family="Times,serif" font-size="14.00" fill="#000000">Diet</text>
</g>
<!-- Problem&#45;&gt;Diet -->
<g id="edge11" class="edge">
<title>Problem&#45;&gt;Diet</title>
<path fill="none" stroke="#000000" d="M73.5,-111.63C73.5,-87.5 73.5,-55.68 73.5,-36.31"/>
<polygon fill="#000000" stroke="#000000" points="70,-111.77 73.5,-121.77 77,-111.77 70,-111.77"/>
<text text-anchor="middle" x="81.5" y="-57.8" font-family="Times,serif" font-size="14.00" fill="#000000">isa</text>
</g>
<!-- Person -->
<g id="node8" class="node">
<title>Person</title>
<polygon fill="none" stroke="#000000" points="66.5,-1035.5 66.5,-1404.5 314.5,-1404.5 314.5,-1035.5 66.5,-1035.5"/>
<text text-anchor="middle" x="190.5" y="-1389.3" font-family="Times,serif" font-size="14.00" fill="#000000">Person</text>
<polyline fill="none" stroke="#000000" points="66.5,-1381.5 314.5,-1381.5 "/>
<text text-anchor="middle" x="126.5" y="-1366.3" font-family="Times,serif" font-size="14.00" fill="#000000">fatigue</text>
<polyline fill="none" stroke="#000000" points="186.5,-1358.5 186.5,-1381.5 "/>
<text text-anchor="middle" x="250.5" y="-1366.3" font-family="Times,serif" font-size="14.00" fill="#000000">Boolean</text>
<polyline fill="none" stroke="#000000" points="66.5,-1358.5 314.5,-1358.5 "/>
<text text-anchor="middle" x="149" y="-1343.3" font-family="Times,serif" font-size="14.00" fill="#000000">min_blood_pressure</text>
<polyline fill="none" stroke="#000000" points="231.5,-1335.5 231.5,-1358.5 "/>
<text text-anchor="middle" x="273" y="-1343.3" font-family="Times,serif" font-size="14.00" fill="#000000">Float</text>
<polyline fill="none" stroke="#000000" points="66.5,-1335.5 314.5,-1335.5 "/>
<text text-anchor="middle" x="149" y="-1320.3" font-family="Times,serif" font-size="14.00" fill="#000000">max_blood_pressure</text>
<polyline fill="none" stroke="#000000" points="231.5,-1312.5 231.5,-1335.5 "/>
<text text-anchor="middle" x="273" y="-1320.3" font-family="Times,serif" font-size="14.00" fill="#000000">Float</text>
<polyline fill="none" stroke="#000000" points="66.5,-1312.5 314.5,-1312.5 "/>
<text text-anchor="middle" x="123.5" y="-1297.3" font-family="Times,serif" font-size="14.00" fill="#000000">age</text>
<polyline fill="none" stroke="#000000" points="180.5,-1289.5 180.5,-1312.5 "/>
<text text-anchor="middle" x="247.5" y="-1297.3" font-family="Times,serif" font-size="14.00" fill="#000000">Integer</text>
<polyline fill="none" stroke="#000000" points="66.5,-1289.5 314.5,-1289.5 "/>
<text text-anchor="middle" x="127.5" y="-1274.3" font-family="Times,serif" font-size="14.00" fill="#000000">bpm</text>
<polyline fill="none" stroke="#000000" points="188.5,-1266.5 188.5,-1289.5 "/>
<text text-anchor="middle" x="251.5" y="-1274.3" font-family="Times,serif" font-size="14.00" fill="#000000">Float</text>
<polyline fill="none" stroke="#000000" points="66.5,-1266.5 314.5,-1266.5 "/>
<text text-anchor="middle" x="129.5" y="-1251.3" font-family="Times,serif" font-size="14.00" fill="#000000">height</text>
<polyline fill="none" stroke="#000000" points="192.5,-1243.5 192.5,-1266.5 "/>
<text text-anchor="middle" x="253.5" y="-1251.3" font-family="Times,serif" font-size="14.00" fill="#000000">Float</text>
<polyline fill="none" stroke="#000000" points="66.5,-1243.5 314.5,-1243.5 "/>
<text text-anchor="middle" x="140" y="-1228.3" font-family="Times,serif" font-size="14.00" fill="#000000">instance_name</text>
<polyline fill="none" stroke="#000000" points="213.5,-1220.5 213.5,-1243.5 "/>
<text text-anchor="middle" x="264" y="-1228.3" font-family="Times,serif" font-size="14.00" fill="#000000">String</text>
<polyline fill="none" stroke="#000000" points="66.5,-1220.5 314.5,-1220.5 "/>
<text text-anchor="middle" x="106.5" y="-1182.3" font-family="Times,serif" font-size="14.00" fill="#000000">activity</text>
<polyline fill="none" stroke="#000000" points="146.5,-1151.5 146.5,-1220.5 "/>
<text text-anchor="middle" x="187.5" y="-1182.3" font-family="Times,serif" font-size="14.00" fill="#000000">Symbol</text>
<polyline fill="none" stroke="#000000" points="228.5,-1151.5 228.5,-1220.5 "/>
<text text-anchor="middle" x="271.5" y="-1205.3" font-family="Times,serif" font-size="14.00" fill="#000000">low</text>
<polyline fill="none" stroke="#000000" points="228.5,-1197.5 314.5,-1197.5 "/>
<text text-anchor="middle" x="271.5" y="-1182.3" font-family="Times,serif" font-size="14.00" fill="#000000">medium</text>
<polyline fill="none" stroke="#000000" points="228.5,-1174.5 314.5,-1174.5 "/>
<text text-anchor="middle" x="271.5" y="-1159.3" font-family="Times,serif" font-size="14.00" fill="#000000">high</text>
<polyline fill="none" stroke="#000000" points="66.5,-1151.5 314.5,-1151.5 "/>
<text text-anchor="middle" x="130.5" y="-1136.3" font-family="Times,serif" font-size="14.00" fill="#000000">weight</text>
<polyline fill="none" stroke="#000000" points="194.5,-1128.5 194.5,-1151.5 "/>
<text text-anchor="middle" x="254.5" y="-1136.3" font-family="Times,serif" font-size="14.00" fill="#000000">Float</text>
<polyline fill="none" stroke="#000000" points="66.5,-1128.5 314.5,-1128.5 "/>
<text text-anchor="middle" x="105" y="-1113.3" font-family="Times,serif" font-size="14.00" fill="#000000">habits</text>
<polyline fill="none" stroke="#000000" points="143.5,-1105.5 143.5,-1128.5 "/>
<text text-anchor="middle" x="191.5" y="-1113.3" font-family="Times,serif" font-size="14.00" fill="#000000">Instance*</text>
<polyline fill="none" stroke="#000000" points="239.5,-1105.5 239.5,-1128.5 "/>
<text text-anchor="middle" x="277" y="-1113.3" font-family="Times,serif" font-size="14.00" fill="#000000">Habit</text>
<polyline fill="none" stroke="#000000" points="66.5,-1105.5 314.5,-1105.5 "/>
<text text-anchor="middle" x="108" y="-1090.3" font-family="Times,serif" font-size="14.00" fill="#000000">problems</text>
<polyline fill="none" stroke="#000000" points="149.5,-1082.5 149.5,-1105.5 "/>
<text text-anchor="middle" x="191.5" y="-1090.3" font-family="Times,serif" font-size="14.00" fill="#000000">Instance*</text>
<polyline fill="none" stroke="#000000" points="233.5,-1082.5 233.5,-1105.5 "/>
<text text-anchor="middle" x="274" y="-1090.3" font-family="Times,serif" font-size="14.00" fill="#000000">Problem</text>
<polyline fill="none" stroke="#000000" points="66.5,-1082.5 314.5,-1082.5 "/>
<text text-anchor="middle" x="127" y="-1067.3" font-family="Times,serif" font-size="14.00" fill="#000000">programa_personal</text>
<polyline fill="none" stroke="#000000" points="187.5,-1059.5 187.5,-1082.5 "/>
<text text-anchor="middle" x="218.5" y="-1067.3" font-family="Times,serif" font-size="14.00" fill="#000000">Instance</text>
<polyline fill="none" stroke="#000000" points="249.5,-1059.5 249.5,-1082.5 "/>
<text text-anchor="middle" x="282" y="-1067.3" font-family="Times,serif" font-size="14.00" fill="#000000">Program</text>
<polyline fill="none" stroke="#000000" points="66.5,-1059.5 314.5,-1059.5 "/>
<text text-anchor="middle" x="126.5" y="-1043.8" font-family="Times,serif" font-size="14.00" fill="#000000">bmi</text>
<polyline fill="none" stroke="#000000" points="186.5,-1035.5 186.5,-1059.5 "/>
<text text-anchor="middle" x="250.5" y="-1043.8" font-family="Times,serif" font-size="14.00" fill="#000000">Float</text>
</g>
<!-- Person&#45;&gt;Problem -->
<g id="edge8" class="edge">
<title>Person&#45;&gt;Problem</title>
<path fill="none" stroke="#0000ff" d="M98.03,-1035.42C83.68,-993.14 73.5,-947.61 73.5,-903.5 73.5,-903.5 73.5,-903.5 73.5,-404.5 73.5,-323.54 73.5,-228.3 73.5,-179.29"/>
<polygon fill="#0000ff" stroke="#0000ff" points="77,-179.28 73.5,-169.28 70,-179.28 77,-179.28"/>
<text text-anchor="middle" x="102.5" y="-684.8" font-family="Times,serif" font-size="14.00" fill="#0000ff">problems*</text>
</g>
<!-- Habit -->
<g id="node9" class="node">
<title>Habit</title>
<polygon fill="none" stroke="#000000" points="101.5,-821.5 101.5,-983.5 279.5,-983.5 279.5,-821.5 101.5,-821.5"/>
<text text-anchor="middle" x="190.5" y="-968.3" font-family="Times,serif" font-size="14.00" fill="#000000">Habit</text>
<polyline fill="none" stroke="#000000" points="101.5,-960.5 279.5,-960.5 "/>
<text text-anchor="middle" x="130" y="-922.3" font-family="Times,serif" font-size="14.00" fill="#000000">activity</text>
<polyline fill="none" stroke="#000000" points="158.5,-891.5 158.5,-960.5 "/>
<text text-anchor="middle" x="188" y="-922.3" font-family="Times,serif" font-size="14.00" fill="#000000">Symbol</text>
<polyline fill="none" stroke="#000000" points="217.5,-891.5 217.5,-960.5 "/>
<text text-anchor="middle" x="248.5" y="-945.3" font-family="Times,serif" font-size="14.00" fill="#000000">low</text>
<polyline fill="none" stroke="#000000" points="217.5,-937.5 279.5,-937.5 "/>
<text text-anchor="middle" x="248.5" y="-922.3" font-family="Times,serif" font-size="14.00" fill="#000000">medium</text>
<polyline fill="none" stroke="#000000" points="217.5,-914.5 279.5,-914.5 "/>
<text text-anchor="middle" x="248.5" y="-899.3" font-family="Times,serif" font-size="14.00" fill="#000000">high</text>
<polyline fill="none" stroke="#000000" points="101.5,-891.5 279.5,-891.5 "/>
<text text-anchor="middle" x="150" y="-876.3" font-family="Times,serif" font-size="14.00" fill="#000000">frequency</text>
<polyline fill="none" stroke="#000000" points="198.5,-868.5 198.5,-891.5 "/>
<text text-anchor="middle" x="239" y="-876.3" font-family="Times,serif" font-size="14.00" fill="#000000">Integer</text>
<polyline fill="none" stroke="#000000" points="101.5,-868.5 279.5,-868.5 "/>
<text text-anchor="middle" x="157.5" y="-853.3" font-family="Times,serif" font-size="14.00" fill="#000000">instance_name</text>
<polyline fill="none" stroke="#000000" points="213.5,-845.5 213.5,-868.5 "/>
<text text-anchor="middle" x="246.5" y="-853.3" font-family="Times,serif" font-size="14.00" fill="#000000">String</text>
<polyline fill="none" stroke="#000000" points="101.5,-845.5 279.5,-845.5 "/>
<text text-anchor="middle" x="150" y="-829.8" font-family="Times,serif" font-size="14.00" fill="#000000">duration</text>
<polyline fill="none" stroke="#000000" points="198.5,-821.5 198.5,-845.5 "/>
<text text-anchor="middle" x="239" y="-829.8" font-family="Times,serif" font-size="14.00" fill="#000000">Float</text>
</g>
<!-- Person&#45;&gt;Habit -->
<g id="edge7" class="edge">
<title>Person&#45;&gt;Habit</title>
<path fill="none" stroke="#0000ff" d="M190.5,-1035.47C190.5,-1021.25 190.5,-1007.31 190.5,-994.13"/>
<polygon fill="#0000ff" stroke="#0000ff" points="194,-993.75 190.5,-983.75 187,-993.75 194,-993.75"/>
<text text-anchor="middle" x="210.5" y="-1005.8" font-family="Times,serif" font-size="14.00" fill="#0000ff">habits*</text>
</g>
<!-- Program -->
<g id="node10" class="node">
<title>Program</title>
<polygon fill="none" stroke="#000000" points="297.5,-879 297.5,-926 541.5,-926 541.5,-879 297.5,-879"/>
<text text-anchor="middle" x="419.5" y="-910.8" font-family="Times,serif" font-size="14.00" fill="#000000">Program</text>
<polyline fill="none" stroke="#000000" points="297.5,-903 541.5,-903 "/>
<text text-anchor="middle" x="330.5" y="-887.3" font-family="Times,serif" font-size="14.00" fill="#000000">exercices</text>
<polyline fill="none" stroke="#000000" points="363.5,-879 363.5,-903 "/>
<text text-anchor="middle" x="397.5" y="-887.3" font-family="Times,serif" font-size="14.00" fill="#000000">Instance*</text>
<polyline fill="none" stroke="#000000" points="431.5,-879 431.5,-903 "/>
<text text-anchor="middle" x="486.5" y="-887.3" font-family="Times,serif" font-size="14.00" fill="#000000">PersonalExercice</text>
</g>
<!-- Person&#45;&gt;Program -->
<g id="edge9" class="edge">
<title>Person&#45;&gt;Program</title>
<path fill="none" stroke="#0000ff" d="M314.72,-1047.86C346.41,-1004.2 377.1,-961.92 396.98,-934.52"/>
<polygon fill="#0000ff" stroke="#0000ff" points="400,-936.32 403.05,-926.17 394.34,-932.21 400,-936.32"/>
<text text-anchor="middle" x="398" y="-1005.8" font-family="Times,serif" font-size="14.00" fill="#0000ff">programa_personal</text>
</g>
<!-- PersonalExercice -->
<g id="node12" class="node">
<title>PersonalExercice</title>
<polygon fill="none" stroke="#000000" points="311,-607.5 311,-769.5 528,-769.5 528,-607.5 311,-607.5"/>
<text text-anchor="middle" x="419.5" y="-754.3" font-family="Times,serif" font-size="14.00" fill="#000000">PersonalExercice</text>
<polyline fill="none" stroke="#000000" points="311,-746.5 528,-746.5 "/>
<text text-anchor="middle" x="357" y="-731.3" font-family="Times,serif" font-size="14.00" fill="#000000">base_exercice</text>
<polyline fill="none" stroke="#000000" points="403,-723.5 403,-746.5 "/>
<text text-anchor="middle" x="434" y="-731.3" font-family="Times,serif" font-size="14.00" fill="#000000">Instance</text>
<polyline fill="none" stroke="#000000" points="465,-723.5 465,-746.5 "/>
<text text-anchor="middle" x="496.5" y="-731.3" font-family="Times,serif" font-size="14.00" fill="#000000">Exercice</text>
<polyline fill="none" stroke="#000000" points="311,-723.5 528,-723.5 "/>
<text text-anchor="middle" x="360.5" y="-708.3" font-family="Times,serif" font-size="14.00" fill="#000000">day</text>
<polyline fill="none" stroke="#000000" points="410,-700.5 410,-723.5 "/>
<text text-anchor="middle" x="469" y="-708.3" font-family="Times,serif" font-size="14.00" fill="#000000">Integer</text>
<polyline fill="none" stroke="#000000" points="311,-700.5 528,-700.5 "/>
<text text-anchor="middle" x="348.5" y="-662.3" font-family="Times,serif" font-size="14.00" fill="#000000">dificulty</text>
<polyline fill="none" stroke="#000000" points="386,-631.5 386,-700.5 "/>
<text text-anchor="middle" x="422.5" y="-662.3" font-family="Times,serif" font-size="14.00" fill="#000000">Symbol</text>
<polyline fill="none" stroke="#000000" points="459,-631.5 459,-700.5 "/>
<text text-anchor="middle" x="493.5" y="-685.3" font-family="Times,serif" font-size="14.00" fill="#000000">low</text>
<polyline fill="none" stroke="#000000" points="459,-677.5 528,-677.5 "/>
<text text-anchor="middle" x="493.5" y="-662.3" font-family="Times,serif" font-size="14.00" fill="#000000">normal</text>
<polyline fill="none" stroke="#000000" points="459,-654.5 528,-654.5 "/>
<text text-anchor="middle" x="493.5" y="-639.3" font-family="Times,serif" font-size="14.00" fill="#000000">hard</text>
<polyline fill="none" stroke="#000000" points="311,-631.5 528,-631.5 "/>
<text text-anchor="middle" x="369.5" y="-615.8" font-family="Times,serif" font-size="14.00" fill="#000000">duration</text>
<polyline fill="none" stroke="#000000" points="428,-607.5 428,-631.5 "/>
<text text-anchor="middle" x="478" y="-615.8" font-family="Times,serif" font-size="14.00" fill="#000000">Float</text>
</g>
<!-- Program&#45;&gt;PersonalExercice -->
<g id="edge12" class="edge">
<title>Program&#45;&gt;PersonalExercice</title>
<path fill="none" stroke="#0000ff" d="M419.5,-878.81C419.5,-855.09 419.5,-816.32 419.5,-780.02"/>
<polygon fill="#0000ff" stroke="#0000ff" points="423,-779.87 419.5,-769.87 416,-779.87 423,-779.87"/>
<text text-anchor="middle" x="448" y="-791.8" font-family="Times,serif" font-size="14.00" fill="#0000ff">exercices*</text>
</g>
<!-- PersonalExercice&#45;&gt;Exercice -->
<g id="edge13" class="edge">
<title>PersonalExercice&#45;&gt;Exercice</title>
<path fill="none" stroke="#0000ff" d="M419.5,-607.35C419.5,-594.11 419.5,-579.98 419.5,-565.58"/>
<polygon fill="#0000ff" stroke="#0000ff" points="423,-565.58 419.5,-555.58 416,-565.58 423,-565.58"/>
<text text-anchor="middle" x="457.5" y="-577.8" font-family="Times,serif" font-size="14.00" fill="#0000ff">base_exercice</text>
</g>
</g>
</svg>
