<?xml version="1.0" encoding="UTF-8" standalone="no"?>
<!DOCTYPE svg PUBLIC "-//W3C//DTD SVG 1.1//EN"
 "http://www.w3.org/Graphics/SVG/1.1/DTD/svg11.dtd">
<!-- Generated by graphviz version 2.44.0 (0)
 -->
<!-- Title: ontologia Pages: 1 -->
<svg width="475pt" height="1247pt"
 viewBox="0.00 0.00 474.50 1247.00" xmlns="http://www.w3.org/2000/svg" xmlns:xlink="http://www.w3.org/1999/xlink">
<g id="graph0" class="graph" transform="scale(1 1) rotate(0) translate(4 1243)">
<title>ontologia</title>
<polygon fill="white" stroke="transparent" points="-4,4 -4,-1243 470.5,-1243 470.5,4 -4,4"/>
<!-- Person -->
<g id="node1" class="node">
<title>Person</title>
<polygon fill="none" stroke="#000000" points="30,-984.5 30,-1238.5 278,-1238.5 278,-984.5 30,-984.5"/>
<text text-anchor="middle" x="154" y="-1223.3" font-family="Times,serif" font-size="14.00" fill="#000000">Person</text>
<polyline fill="none" stroke="#000000" points="30,-1215.5 278,-1215.5 "/>
<text text-anchor="middle" x="93" y="-1200.3" font-family="Times,serif" font-size="14.00" fill="#000000">height</text>
<polyline fill="none" stroke="#000000" points="156,-1192.5 156,-1215.5 "/>
<text text-anchor="middle" x="217" y="-1200.3" font-family="Times,serif" font-size="14.00" fill="#000000">Float</text>
<polyline fill="none" stroke="#000000" points="30,-1192.5 278,-1192.5 "/>
<text text-anchor="middle" x="94" y="-1177.3" font-family="Times,serif" font-size="14.00" fill="#000000">weight</text>
<polyline fill="none" stroke="#000000" points="158,-1169.5 158,-1192.5 "/>
<text text-anchor="middle" x="218" y="-1177.3" font-family="Times,serif" font-size="14.00" fill="#000000">Float</text>
<polyline fill="none" stroke="#000000" points="30,-1169.5 278,-1169.5 "/>
<text text-anchor="middle" x="87" y="-1154.3" font-family="Times,serif" font-size="14.00" fill="#000000">age</text>
<polyline fill="none" stroke="#000000" points="144,-1146.5 144,-1169.5 "/>
<text text-anchor="middle" x="211" y="-1154.3" font-family="Times,serif" font-size="14.00" fill="#000000">Integer</text>
<polyline fill="none" stroke="#000000" points="30,-1146.5 278,-1146.5 "/>
<text text-anchor="middle" x="112.5" y="-1131.3" font-family="Times,serif" font-size="14.00" fill="#000000">min_blood_pressure</text>
<polyline fill="none" stroke="#000000" points="195,-1123.5 195,-1146.5 "/>
<text text-anchor="middle" x="236.5" y="-1131.3" font-family="Times,serif" font-size="14.00" fill="#000000">Float</text>
<polyline fill="none" stroke="#000000" points="30,-1123.5 278,-1123.5 "/>
<text text-anchor="middle" x="111.5" y="-1108.3" font-family="Times,serif" font-size="14.00" fill="#000000">max_blood_presure</text>
<polyline fill="none" stroke="#000000" points="193,-1100.5 193,-1123.5 "/>
<text text-anchor="middle" x="235.5" y="-1108.3" font-family="Times,serif" font-size="14.00" fill="#000000">Float</text>
<polyline fill="none" stroke="#000000" points="30,-1100.5 278,-1100.5 "/>
<text text-anchor="middle" x="91" y="-1085.3" font-family="Times,serif" font-size="14.00" fill="#000000">bpm</text>
<polyline fill="none" stroke="#000000" points="152,-1077.5 152,-1100.5 "/>
<text text-anchor="middle" x="215" y="-1085.3" font-family="Times,serif" font-size="14.00" fill="#000000">Float</text>
<polyline fill="none" stroke="#000000" points="30,-1077.5 278,-1077.5 "/>
<text text-anchor="middle" x="90" y="-1062.3" font-family="Times,serif" font-size="14.00" fill="#000000">fatigue</text>
<polyline fill="none" stroke="#000000" points="150,-1054.5 150,-1077.5 "/>
<text text-anchor="middle" x="214" y="-1062.3" font-family="Times,serif" font-size="14.00" fill="#000000">Boolean</text>
<polyline fill="none" stroke="#000000" points="30,-1054.5 278,-1054.5 "/>
<text text-anchor="middle" x="68.5" y="-1039.3" font-family="Times,serif" font-size="14.00" fill="#000000">habits</text>
<polyline fill="none" stroke="#000000" points="107,-1031.5 107,-1054.5 "/>
<text text-anchor="middle" x="155" y="-1039.3" font-family="Times,serif" font-size="14.00" fill="#000000">Instance*</text>
<polyline fill="none" stroke="#000000" points="203,-1031.5 203,-1054.5 "/>
<text text-anchor="middle" x="240.5" y="-1039.3" font-family="Times,serif" font-size="14.00" fill="#000000">Habit</text>
<polyline fill="none" stroke="#000000" points="30,-1031.5 278,-1031.5 "/>
<text text-anchor="middle" x="71.5" y="-1016.3" font-family="Times,serif" font-size="14.00" fill="#000000">problems</text>
<polyline fill="none" stroke="#000000" points="113,-1008.5 113,-1031.5 "/>
<text text-anchor="middle" x="155" y="-1016.3" font-family="Times,serif" font-size="14.00" fill="#000000">Instance*</text>
<polyline fill="none" stroke="#000000" points="197,-1008.5 197,-1031.5 "/>
<text text-anchor="middle" x="237.5" y="-1016.3" font-family="Times,serif" font-size="14.00" fill="#000000">Problem</text>
<polyline fill="none" stroke="#000000" points="30,-1008.5 278,-1008.5 "/>
<text text-anchor="middle" x="90.5" y="-992.8" font-family="Times,serif" font-size="14.00" fill="#000000">programa_personal</text>
<polyline fill="none" stroke="#000000" points="151,-984.5 151,-1008.5 "/>
<text text-anchor="middle" x="182" y="-992.8" font-family="Times,serif" font-size="14.00" fill="#000000">Instance</text>
<polyline fill="none" stroke="#000000" points="213,-984.5 213,-1008.5 "/>
<text text-anchor="middle" x="245.5" y="-992.8" font-family="Times,serif" font-size="14.00" fill="#000000">Program</text>
</g>
<!-- Habit -->
<g id="node2" class="node">
<title>Habit</title>
<polygon fill="none" stroke="#000000" points="0,-862.5 0,-932.5 126,-932.5 126,-862.5 0,-862.5"/>
<text text-anchor="middle" x="63" y="-917.3" font-family="Times,serif" font-size="14.00" fill="#000000">Habit</text>
<polyline fill="none" stroke="#000000" points="0,-909.5 126,-909.5 "/>
<text text-anchor="middle" x="35.5" y="-894.3" font-family="Times,serif" font-size="14.00" fill="#000000">duration</text>
<polyline fill="none" stroke="#000000" points="71,-886.5 71,-909.5 "/>
<text text-anchor="middle" x="98.5" y="-894.3" font-family="Times,serif" font-size="14.00" fill="#000000">Float</text>
<polyline fill="none" stroke="#000000" points="0,-886.5 126,-886.5 "/>
<text text-anchor="middle" x="35.5" y="-870.8" font-family="Times,serif" font-size="14.00" fill="#000000">frequency</text>
<polyline fill="none" stroke="#000000" points="71,-862.5 71,-886.5 "/>
<text text-anchor="middle" x="98.5" y="-870.8" font-family="Times,serif" font-size="14.00" fill="#000000">Integer</text>
</g>
<!-- Person&#45;&gt;Habit -->
<g id="edge1" class="edge">
<title>Person&#45;&gt;Habit</title>
<path fill="none" stroke="#0000ff" d="M99.88,-984.42C93.37,-969.26 87.11,-954.67 81.65,-941.94"/>
<polygon fill="#0000ff" stroke="#0000ff" points="84.8,-940.41 77.64,-932.6 78.37,-943.17 84.8,-940.41"/>
<text text-anchor="middle" x="110" y="-954.8" font-family="Times,serif" font-size="14.00" fill="#0000ff">habits*</text>
</g>
<!-- Problem -->
<g id="node3" class="node">
<title>Problem</title>
<polygon fill="none" stroke="#000000" points="268,-123 204,-123 204,-87 268,-87 268,-123"/>
<text text-anchor="middle" x="236" y="-101.3" font-family="Times,serif" font-size="14.00" fill="#000000">Problem</text>
</g>
<!-- Person&#45;&gt;Problem -->
<g id="edge2" class="edge">
<title>Person&#45;&gt;Problem</title>
<path fill="none" stroke="#0000ff" d="M154,-984.39C154,-956.13 154,-926.29 154,-898.5 154,-898.5 154,-898.5 154,-277.5 154,-229.48 163.37,-216.87 185,-174 192.72,-158.69 203.94,-143.27 213.89,-131"/>
<polygon fill="#0000ff" stroke="#0000ff" points="216.81,-132.96 220.52,-123.04 211.43,-128.48 216.81,-132.96"/>
<text text-anchor="middle" x="183" y="-572.8" font-family="Times,serif" font-size="14.00" fill="#0000ff">problems*</text>
</g>
<!-- Program -->
<g id="node4" class="node">
<title>Program</title>
<polygon fill="none" stroke="#000000" points="207,-874 207,-921 383,-921 383,-874 207,-874"/>
<text text-anchor="middle" x="295" y="-905.8" font-family="Times,serif" font-size="14.00" fill="#000000">Program</text>
<polyline fill="none" stroke="#000000" points="207,-898 383,-898 "/>
<text text-anchor="middle" x="241.5" y="-882.3" font-family="Times,serif" font-size="14.00" fill="#000000">weekdays</text>
<polyline fill="none" stroke="#000000" points="276,-874 276,-898 "/>
<text text-anchor="middle" x="310" y="-882.3" font-family="Times,serif" font-size="14.00" fill="#000000">Instance*</text>
<polyline fill="none" stroke="#000000" points="344,-874 344,-898 "/>
<text text-anchor="middle" x="363.5" y="-882.3" font-family="Times,serif" font-size="14.00" fill="#000000">Day</text>
</g>
<!-- Person&#45;&gt;Program -->
<g id="edge3" class="edge">
<title>Person&#45;&gt;Program</title>
<path fill="none" stroke="#0000ff" d="M237.85,-984.42C251.4,-964.06 264.26,-944.72 274.34,-929.56"/>
<polygon fill="#0000ff" stroke="#0000ff" points="277.32,-931.41 279.94,-921.14 271.49,-927.53 277.32,-931.41"/>
<text text-anchor="middle" x="310.5" y="-954.8" font-family="Times,serif" font-size="14.00" fill="#0000ff">programa_personal</text>
</g>
<!-- Physical -->
<g id="node5" class="node">
<title>Physical</title>
<polygon fill="none" stroke="#000000" points="229.5,-36 166.5,-36 166.5,0 229.5,0 229.5,-36"/>
<text text-anchor="middle" x="198" y="-14.3" font-family="Times,serif" font-size="14.00" fill="#000000">Physical</text>
</g>
<!-- Problem&#45;&gt;Physical -->
<g id="edge4" class="edge">
<title>Problem&#45;&gt;Physical</title>
<path fill="none" stroke="#000000" d="M224.16,-77.52C218.14,-64.04 210.98,-48.04 205.68,-36.18"/>
<polygon fill="#000000" stroke="#000000" points="221.03,-79.1 228.31,-86.8 227.42,-76.24 221.03,-79.1"/>
<text text-anchor="middle" x="228" y="-57.8" font-family="Times,serif" font-size="14.00" fill="#000000">isa</text>
</g>
<!-- Diet -->
<g id="node6" class="node">
<title>Diet</title>
<polygon fill="none" stroke="#000000" points="302,-36 248,-36 248,0 302,0 302,-36"/>
<text text-anchor="middle" x="275" y="-14.3" font-family="Times,serif" font-size="14.00" fill="#000000">Diet</text>
</g>
<!-- Problem&#45;&gt;Diet -->
<g id="edge5" class="edge">
<title>Problem&#45;&gt;Diet</title>
<path fill="none" stroke="#000000" d="M248.15,-77.52C254.33,-64.04 261.68,-48.04 267.12,-36.18"/>
<polygon fill="#000000" stroke="#000000" points="244.88,-76.25 243.89,-86.8 251.24,-79.17 244.88,-76.25"/>
<text text-anchor="middle" x="266" y="-57.8" font-family="Times,serif" font-size="14.00" fill="#000000">isa</text>
</g>
<!-- Day -->
<g id="node7" class="node">
<title>Day</title>
<polygon fill="none" stroke="#000000" points="182.5,-602.5 182.5,-810.5 459.5,-810.5 459.5,-602.5 182.5,-602.5"/>
<text text-anchor="middle" x="321" y="-795.3" font-family="Times,serif" font-size="14.00" fill="#000000">Day</text>
<polyline fill="none" stroke="#000000" points="182.5,-787.5 459.5,-787.5 "/>
<text text-anchor="middle" x="230" y="-703.3" font-family="Times,serif" font-size="14.00" fill="#000000">day_name</text>
<polyline fill="none" stroke="#000000" points="277.5,-626.5 277.5,-787.5 "/>
<text text-anchor="middle" x="318.5" y="-703.3" font-family="Times,serif" font-size="14.00" fill="#000000">Symbol</text>
<polyline fill="none" stroke="#000000" points="359.5,-626.5 359.5,-787.5 "/>
<text text-anchor="middle" x="409.5" y="-772.3" font-family="Times,serif" font-size="14.00" fill="#000000">monday</text>
<polyline fill="none" stroke="#000000" points="359.5,-764.5 459.5,-764.5 "/>
<text text-anchor="middle" x="409.5" y="-749.3" font-family="Times,serif" font-size="14.00" fill="#000000">tuesday</text>
<polyline fill="none" stroke="#000000" points="359.5,-741.5 459.5,-741.5 "/>
<text text-anchor="middle" x="409.5" y="-726.3" font-family="Times,serif" font-size="14.00" fill="#000000">wednesday</text>
<polyline fill="none" stroke="#000000" points="359.5,-718.5 459.5,-718.5 "/>
<text text-anchor="middle" x="409.5" y="-703.3" font-family="Times,serif" font-size="14.00" fill="#000000">thursday</text>
<polyline fill="none" stroke="#000000" points="359.5,-695.5 459.5,-695.5 "/>
<text text-anchor="middle" x="409.5" y="-680.3" font-family="Times,serif" font-size="14.00" fill="#000000">friday</text>
<polyline fill="none" stroke="#000000" points="359.5,-672.5 459.5,-672.5 "/>
<text text-anchor="middle" x="409.5" y="-657.3" font-family="Times,serif" font-size="14.00" fill="#000000">saturday</text>
<polyline fill="none" stroke="#000000" points="359.5,-649.5 459.5,-649.5 "/>
<text text-anchor="middle" x="409.5" y="-634.3" font-family="Times,serif" font-size="14.00" fill="#000000">sunday</text>
<polyline fill="none" stroke="#000000" points="182.5,-626.5 459.5,-626.5 "/>
<text text-anchor="middle" x="232" y="-610.8" font-family="Times,serif" font-size="14.00" fill="#000000">daily_exercices</text>
<polyline fill="none" stroke="#000000" points="281.5,-602.5 281.5,-626.5 "/>
<text text-anchor="middle" x="315.5" y="-610.8" font-family="Times,serif" font-size="14.00" fill="#000000">Instance*</text>
<polyline fill="none" stroke="#000000" points="349.5,-602.5 349.5,-626.5 "/>
<text text-anchor="middle" x="404.5" y="-610.8" font-family="Times,serif" font-size="14.00" fill="#000000">PersonalExercice</text>
</g>
<!-- Program&#45;&gt;Day -->
<g id="edge6" class="edge">
<title>Program&#45;&gt;Day</title>
<path fill="none" stroke="#0000ff" d="M298.14,-873.7C300.05,-859.78 302.66,-840.82 305.43,-820.69"/>
<polygon fill="#0000ff" stroke="#0000ff" points="308.9,-821.11 306.8,-810.72 301.97,-820.15 308.9,-821.11"/>
<text text-anchor="middle" x="334" y="-832.8" font-family="Times,serif" font-size="14.00" fill="#0000ff">weekdays*</text>
</g>
<!-- PersonalExercice -->
<g id="node8" class="node">
<title>PersonalExercice</title>
<polygon fill="none" stroke="#000000" points="197.5,-434.5 197.5,-550.5 414.5,-550.5 414.5,-434.5 197.5,-434.5"/>
<text text-anchor="middle" x="306" y="-535.3" font-family="Times,serif" font-size="14.00" fill="#000000">PersonalExercice</text>
<polyline fill="none" stroke="#000000" points="197.5,-527.5 414.5,-527.5 "/>
<text text-anchor="middle" x="243.5" y="-512.3" font-family="Times,serif" font-size="14.00" fill="#000000">base_exercice</text>
<polyline fill="none" stroke="#000000" points="289.5,-504.5 289.5,-527.5 "/>
<text text-anchor="middle" x="320.5" y="-512.3" font-family="Times,serif" font-size="14.00" fill="#000000">Instance</text>
<polyline fill="none" stroke="#000000" points="351.5,-504.5 351.5,-527.5 "/>
<text text-anchor="middle" x="383" y="-512.3" font-family="Times,serif" font-size="14.00" fill="#000000">Exercice</text>
<polyline fill="none" stroke="#000000" points="197.5,-504.5 414.5,-504.5 "/>
<text text-anchor="middle" x="233" y="-465.8" font-family="Times,serif" font-size="14.00" fill="#000000">dificulty</text>
<polyline fill="none" stroke="#000000" points="268.5,-434.5 268.5,-504.5 "/>
<text text-anchor="middle" x="303" y="-465.8" font-family="Times,serif" font-size="14.00" fill="#000000">Symbol</text>
<polyline fill="none" stroke="#000000" points="337.5,-434.5 337.5,-504.5 "/>
<text text-anchor="middle" x="376" y="-489.3" font-family="Times,serif" font-size="14.00" fill="#000000">moderate</text>
<polyline fill="none" stroke="#000000" points="337.5,-481.5 414.5,-481.5 "/>
<text text-anchor="middle" x="376" y="-466.3" font-family="Times,serif" font-size="14.00" fill="#000000">normal</text>
<polyline fill="none" stroke="#000000" points="337.5,-458.5 414.5,-458.5 "/>
<text text-anchor="middle" x="376" y="-442.8" font-family="Times,serif" font-size="14.00" fill="#000000">hard</text>
</g>
<!-- Day&#45;&gt;PersonalExercice -->
<g id="edge7" class="edge">
<title>Day&#45;&gt;PersonalExercice</title>
<path fill="none" stroke="#0000ff" d="M313.7,-602.29C312.7,-588.25 311.71,-574.14 310.77,-560.96"/>
<polygon fill="#0000ff" stroke="#0000ff" points="314.24,-560.33 310.04,-550.6 307.25,-560.82 314.24,-560.33"/>
<text text-anchor="middle" x="357" y="-572.8" font-family="Times,serif" font-size="14.00" fill="#0000ff">daily_exercices*</text>
</g>
<!-- Exercice -->
<g id="node9" class="node">
<title>Exercice</title>
<polygon fill="none" stroke="#000000" points="194.5,-174.5 194.5,-382.5 391.5,-382.5 391.5,-174.5 194.5,-174.5"/>
<text text-anchor="middle" x="293" y="-367.3" font-family="Times,serif" font-size="14.00" fill="#000000">Exercice</text>
<polyline fill="none" stroke="#000000" points="194.5,-359.5 391.5,-359.5 "/>
<text text-anchor="middle" x="227.5" y="-344.3" font-family="Times,serif" font-size="14.00" fill="#000000">exercices</text>
<polyline fill="none" stroke="#000000" points="260.5,-336.5 260.5,-359.5 "/>
<text text-anchor="middle" x="294.5" y="-344.3" font-family="Times,serif" font-size="14.00" fill="#000000">Instance*</text>
<polyline fill="none" stroke="#000000" points="328.5,-336.5 328.5,-359.5 "/>
<text text-anchor="middle" x="360" y="-344.3" font-family="Times,serif" font-size="14.00" fill="#000000">Exercice</text>
<polyline fill="none" stroke="#000000" points="194.5,-336.5 391.5,-336.5 "/>
<text text-anchor="middle" x="223" y="-321.3" font-family="Times,serif" font-size="14.00" fill="#000000">harms</text>
<polyline fill="none" stroke="#000000" points="251.5,-313.5 251.5,-336.5 "/>
<text text-anchor="middle" x="286" y="-321.3" font-family="Times,serif" font-size="14.00" fill="#000000">Instance</text>
<polyline fill="none" stroke="#000000" points="320.5,-313.5 320.5,-336.5 "/>
<text text-anchor="middle" x="356" y="-321.3" font-family="Times,serif" font-size="14.00" fill="#000000">Problem</text>
<polyline fill="none" stroke="#000000" points="194.5,-313.5 391.5,-313.5 "/>
<text text-anchor="middle" x="224.5" y="-298.3" font-family="Times,serif" font-size="14.00" fill="#000000">benefits</text>
<polyline fill="none" stroke="#000000" points="254.5,-290.5 254.5,-313.5 "/>
<text text-anchor="middle" x="289.5" y="-298.3" font-family="Times,serif" font-size="14.00" fill="#000000">Instance*</text>
<polyline fill="none" stroke="#000000" points="324.5,-290.5 324.5,-313.5 "/>
<text text-anchor="middle" x="358" y="-298.3" font-family="Times,serif" font-size="14.00" fill="#000000">Problem</text>
<polyline fill="none" stroke="#000000" points="194.5,-290.5 391.5,-290.5 "/>
<text text-anchor="middle" x="255.5" y="-275.3" font-family="Times,serif" font-size="14.00" fill="#000000">min_repetitions</text>
<polyline fill="none" stroke="#000000" points="316.5,-267.5 316.5,-290.5 "/>
<text text-anchor="middle" x="354" y="-275.3" font-family="Times,serif" font-size="14.00" fill="#000000">Integer</text>
<polyline fill="none" stroke="#000000" points="194.5,-267.5 391.5,-267.5 "/>
<text text-anchor="middle" x="256" y="-252.3" font-family="Times,serif" font-size="14.00" fill="#000000">max_repetitions</text>
<polyline fill="none" stroke="#000000" points="317.5,-244.5 317.5,-267.5 "/>
<text text-anchor="middle" x="354.5" y="-252.3" font-family="Times,serif" font-size="14.00" fill="#000000">Integer</text>
<polyline fill="none" stroke="#000000" points="194.5,-244.5 391.5,-244.5 "/>
<text text-anchor="middle" x="260.5" y="-229.3" font-family="Times,serif" font-size="14.00" fill="#000000">calories_per_time</text>
<polyline fill="none" stroke="#000000" points="326.5,-221.5 326.5,-244.5 "/>
<text text-anchor="middle" x="359" y="-229.3" font-family="Times,serif" font-size="14.00" fill="#000000">Float</text>
<polyline fill="none" stroke="#000000" points="194.5,-221.5 391.5,-221.5 "/>
<text text-anchor="middle" x="267.5" y="-206.3" font-family="Times,serif" font-size="14.00" fill="#000000">min_exercice_duration</text>
<polyline fill="none" stroke="#000000" points="340.5,-198.5 340.5,-221.5 "/>
<text text-anchor="middle" x="366" y="-206.3" font-family="Times,serif" font-size="14.00" fill="#000000">Float</text>
<polyline fill="none" stroke="#000000" points="194.5,-198.5 391.5,-198.5 "/>
<text text-anchor="middle" x="268" y="-182.8" font-family="Times,serif" font-size="14.00" fill="#000000">max_exercice_duration</text>
<polyline fill="none" stroke="#000000" points="341.5,-174.5 341.5,-198.5 "/>
<text text-anchor="middle" x="366.5" y="-182.8" font-family="Times,serif" font-size="14.00" fill="#000000">Float</text>
</g>
<!-- PersonalExercice&#45;&gt;Exercice -->
<g id="edge8" class="edge">
<title>PersonalExercice&#45;&gt;Exercice</title>
<path fill="none" stroke="#0000ff" d="M302.5,-434.41C301.71,-421.58 300.85,-407.53 299.98,-393.28"/>
<polygon fill="#0000ff" stroke="#0000ff" points="303.45,-392.66 299.34,-382.9 296.46,-393.09 303.45,-392.66"/>
<text text-anchor="middle" x="339" y="-404.8" font-family="Times,serif" font-size="14.00" fill="#0000ff">base_exercice</text>
</g>
<!-- Exercice&#45;&gt;Problem -->
<g id="edge9" class="edge">
<title>Exercice&#45;&gt;Problem</title>
<path fill="none" stroke="#0000ff" d="M242.11,-174.44C240.14,-168.29 238.4,-162.11 237,-156 235.35,-148.84 234.69,-140.94 234.53,-133.59"/>
<polygon fill="#0000ff" stroke="#0000ff" points="238.03,-133.37 234.62,-123.34 231.03,-133.31 238.03,-133.37"/>
<text text-anchor="middle" x="254" y="-144.8" font-family="Times,serif" font-size="14.00" fill="#0000ff">harms</text>
</g>
<!-- Exercice&#45;&gt;Problem -->
<g id="edge10" class="edge">
<title>Exercice&#45;&gt;Problem</title>
<path fill="none" stroke="#0000ff" d="M283.51,-174.27C280.38,-162.7 276.3,-151.37 271,-141 269.16,-137.4 266.82,-133.94 264.21,-130.7"/>
<polygon fill="#0000ff" stroke="#0000ff" points="266.65,-128.18 257.35,-123.1 261.46,-132.87 266.65,-128.18"/>
<text text-anchor="middle" x="301.5" y="-144.8" font-family="Times,serif" font-size="14.00" fill="#0000ff">benefits*</text>
</g>
<!-- Exercice&#45;&gt;Exercice -->
<g id="edge11" class="edge">
<title>Exercice&#45;&gt;Exercice</title>
<path fill="none" stroke="#0000ff" d="M391.59,-299.01C402.47,-295.11 409.5,-288.28 409.5,-278.5 409.5,-271.78 406.18,-266.45 400.57,-262.51"/>
<polygon fill="#0000ff" stroke="#0000ff" points="402.1,-259.36 391.59,-257.99 398.95,-265.61 402.1,-259.36"/>
<text text-anchor="middle" x="438" y="-274.8" font-family="Times,serif" font-size="14.00" fill="#0000ff">exercices*</text>
</g>
</g>
</svg>
